<mxfile host="app.diagrams.net" modified="2024-05-09T23:26:34.073Z" agent="Mozilla/5.0 (Windows NT 10.0; Win64; x64) AppleWebKit/537.36 (KHTML, like Gecko) Chrome/124.0.0.0 Safari/537.36" etag="QAzOqg_Ct9_3kndeNIa-" version="24.3.0" type="device">
  <diagram name="Page-1" id="60nP7bbnmSPwABMeLaZd">
    <mxGraphModel dx="1115" dy="639" grid="1" gridSize="10" guides="1" tooltips="1" connect="1" arrows="1" fold="1" page="1" pageScale="1" pageWidth="850" pageHeight="1100" math="0" shadow="0">
      <root>
        <mxCell id="0" />
        <mxCell id="1" parent="0" />
        <mxCell id="r8Hm6_AhLgGKU_c6-KS3-1" value="" style="rounded=0;whiteSpace=wrap;html=1;" vertex="1" parent="1">
          <mxGeometry x="120" y="100" width="580" height="370" as="geometry" />
        </mxCell>
        <mxCell id="r8Hm6_AhLgGKU_c6-KS3-2" value="" style="rounded=0;whiteSpace=wrap;html=1;" vertex="1" parent="1">
          <mxGeometry x="120" y="100" width="580" height="40" as="geometry" />
        </mxCell>
        <mxCell id="r8Hm6_AhLgGKU_c6-KS3-3" value="Ad." style="ellipse;whiteSpace=wrap;html=1;aspect=fixed;" vertex="1" parent="1">
          <mxGeometry x="670" y="105" width="30" height="30" as="geometry" />
        </mxCell>
        <mxCell id="r8Hm6_AhLgGKU_c6-KS3-5" value="" style="rounded=1;whiteSpace=wrap;html=1;" vertex="1" parent="1">
          <mxGeometry x="330" y="105" width="190" height="30" as="geometry" />
        </mxCell>
        <mxCell id="r8Hm6_AhLgGKU_c6-KS3-7" value="" style="shape=delay;whiteSpace=wrap;html=1;rotation=-180;" vertex="1" parent="1">
          <mxGeometry x="370" y="105" width="150" height="30" as="geometry" />
        </mxCell>
        <mxCell id="r8Hm6_AhLgGKU_c6-KS3-8" value="" style="shape=delay;whiteSpace=wrap;html=1;rotation=-180;" vertex="1" parent="1">
          <mxGeometry x="470" y="105" width="50" height="30" as="geometry" />
        </mxCell>
        <mxCell id="r8Hm6_AhLgGKU_c6-KS3-10" value="Logo/Home" style="text;html=1;align=center;verticalAlign=middle;whiteSpace=wrap;rounded=0;" vertex="1" parent="1">
          <mxGeometry x="130" y="105" width="60" height="30" as="geometry" />
        </mxCell>
        <mxCell id="r8Hm6_AhLgGKU_c6-KS3-11" value="" style="rounded=0;whiteSpace=wrap;html=1;" vertex="1" parent="1">
          <mxGeometry x="330" y="135" width="50" height="105" as="geometry" />
        </mxCell>
        <mxCell id="r8Hm6_AhLgGKU_c6-KS3-12" value="Search" style="rounded=1;whiteSpace=wrap;html=1;" vertex="1" parent="1">
          <mxGeometry x="330" y="140" width="50" height="30" as="geometry" />
        </mxCell>
        <mxCell id="r8Hm6_AhLgGKU_c6-KS3-13" value="Upcom." style="rounded=1;whiteSpace=wrap;html=1;" vertex="1" parent="1">
          <mxGeometry x="330" y="172.5" width="50" height="30" as="geometry" />
        </mxCell>
      </root>
    </mxGraphModel>
  </diagram>
</mxfile>
